# xmcd CD database file
#
# Track frame offsets:
#	150
#	31615
#	66775
#	98396
#	125119
#	153157
#	187623
#	214014
#	231152
#	262372
#
# Disc length: 4440 seconds
#
# Revision: 1
# Processed by: cddbd v1.5.2PL0 Copyright (c) Steve Scherf et al.
# Submitted via: CDex 1.51
#
DISCID=7c11560a
DTITLE=Tony Levin Band - Double Espresso [CD 2)
DYEAR=2003
DGENRE=Jazz
TTITLE0=Pillar on Fire
TTITLE1=Ever The Sun Will Rise
TTITLE2=Phobos
TTITLE3=The Fifth Man
TTITLE4=Back to N.Y.C.
TTITLE5=Utopia
TTITLE6=Elephant Talk
TTITLE7=Peter Gunn
TTITLE8=Belle
TTITLE9=Data
EXTD=YEAR: 2003
EXTT0=
EXTT1=
EXTT2=
EXTT3=
EXTT4=
EXTT5=
EXTT6=
EXTT7=
EXTT8=
EXTT9=
PLAYORDER=
